<svg id="_1-Marketing" viewBox="0 0 512 512" xmlns="http://www.w3.org/2000/svg" xmlns:xlink="http://www.w3.org/1999/xlink" data-name="1-Marketing"><linearGradient id="Degradado_sin_nombre_33" gradientUnits="userSpaceOnUse" x1="60.123" x2="504.196" y1="447.615" y2="18.778" data-name="Degradado sin nombre 33"><stop offset="0" stop-color="#ffe066"/><stop offset=".139" stop-color="#ffcf67"/><stop offset=".412" stop-color="#ffa36c"/><stop offset=".792" stop-color="#ff5d74"/><stop offset="1" stop-color="#ff3479"/></linearGradient><path d="m511.39 80.08-.861-39.327c-.468-21.377-17.574-38.703-38.943-39.443l-33.049-1.146c-98.297-3.414-191.985 37.807-255.775 111.315l-59.147-1.618c-38.856-1.049-76.891 14.089-104.373 41.57l-7.312 7.313c-7.623 7.62-11.82 17.753-11.82 28.532s4.197 20.912 11.818 28.533l54.005 54.004-1.607 2.206c-11.776 16.161-10.06 38.155 4.081 52.295l9.185 9.337-37.08 37.08c-15.596 15.596-15.596 40.973 0 56.568l45.639 45.638c7.797 7.796 18.042 11.697 28.283 11.697 10.243 0 20.486-3.899 28.285-11.697l36.24-36.24 10.24 10.409c7.821 7.822 18.163 11.808 28.55 11.808 8.748 0 17.529-2.827 24.862-8.571l2.204-1.648 51.454 51.453c7.621 7.622 17.754 11.819 28.533 11.819s20.911-4.197 28.533-11.819l7.313-7.313c27.48-27.482 42.632-65.524 41.568-104.372l-1.57-57.362c33.343-29.172 60.7-65.272 79.655-105.3 21.434-45.262 32.184-95.652 31.088-145.721zm-396.937 364.589s-.007-.005-.019-.017l-45.638-45.638 36.155-36.156 45.642 45.643-36.141 36.167zm356.086-403.04.861 39.326c.597 27.278-2.82 54.664-10.001 81.013-28.548-3.174-54.987-15.825-75.594-36.432-20.307-20.307-32.968-46.504-36.326-74.723 25.011-7.12 51.151-10.846 77.763-10.846 3.296 0 43.294 1.476 43.298 1.662zm-430.327 145.895c-.051-.05-.103-.103-.103-.248s.052-.197.104-.249l7.313-7.313c19.745-19.746 47.099-30.646 74.994-29.869l30.217.827-62.961 86.415zm292.151 277.026-7.312 7.313c-.051.051-.104.104-.249.104s-.197-.052-.248-.103l-47.37-47.37 84.28-63.013.768 28.076c.764 27.914-10.123 55.248-29.869 74.994zm30.244-153.855-144.66 108.156c-.14.108-.338.096-.464-.028s-120.793-122.793-120.793-122.793c-.124-.124-.14-.315-.036-.456l101.186-138.881c29.601-40.626 68.827-71.969 113.277-91.9 5.902 33.573 21.929 64.554 46.402 89.027 24.906 24.906 56.292 40.974 90.354 46.647-1.198 2.757-2.437 5.497-3.723 8.214-18.787 39.673-46.984 74.949-81.544 102.014zm-138.127-120.41c-26.81 26.81-26.81 70.434 0 97.244 13.405 13.405 31.015 20.108 48.623 20.108s35.218-6.703 48.623-20.108c26.809-26.81 26.809-70.434 0-97.245-26.81-26.81-70.432-26.81-97.245 0zm68.96 68.961c-11.216 11.212-29.464 11.214-40.676 0-11.215-11.214-11.215-29.462 0-40.676 5.608-5.608 12.973-8.411 20.339-8.411s14.731 2.804 20.338 8.41c11.214 11.215 11.214 29.462 0 40.677z" fill="url(#Degradado_sin_nombre_33)"/></svg>